<svg width="128" height="128" viewBox="0 0 128 128" fill="none" xmlns="http://www.w3.org/2000/svg" role="img" aria-labelledby="title desc">
  <title id="title">Mercado Livre</title>
  <desc id="desc">Icone compacto do aperto de maos do Mercado Livre em fundo transparente.</desc>
  <path
    d="M48.5 43.2 66.8 27.8c4.7-4 11.6-4.2 16.6-.5l23.5 17.4"
    stroke="#243E91"
    stroke-width="7"
    stroke-linecap="round"
    stroke-linejoin="round"
  />
  <path
    d="M22 55.4 42.2 38.8c5.1-4.2 12.3-4.3 17.6-.4l8.7 6.5"
    stroke="#243E91"
    stroke-width="7"
    stroke-linecap="round"
    stroke-linejoin="round"
  />
  <path
    d="M47.8 43.8 36.2 55c-4.1 4-3.8 10.9.8 14.5 3.5 2.7 8.3 2.9 12 .5l13.5-8.4 32 27.2c3.9 3.3 9.7 2.9 13.1-.9 3.4-3.8 3-9.6-.8-13L75.2 47.2"
    fill="#FFFFFF"
  />
  <path
    d="M47.8 43.8 36.2 55c-4.1 4-3.8 10.9.8 14.5 3.5 2.7 8.3 2.9 12 .5l13.5-8.4 32 27.2c3.9 3.3 9.7 2.9 13.1-.9 3.4-3.8 3-9.6-.8-13L75.2 47.2"
    stroke="#243E91"
    stroke-width="7"
    stroke-linecap="round"
    stroke-linejoin="round"
  />
  <path d="M59.2 79.1 76.8 94" stroke="#243E91" stroke-width="7" stroke-linecap="round" />
  <path d="M47.8 87.1 63.4 100.2" stroke="#243E91" stroke-width="7" stroke-linecap="round" />
  <path d="M36.6 94.1 50.4 105.6" stroke="#243E91" stroke-width="7" stroke-linecap="round" />
  <path
    d="M23.8 69.8c3.4-3.8 9.2-4.1 13-.8l14.5 12.4c3.7 3.2 4.1 8.8.9 12.5-3.2 3.7-8.8 4.1-12.5.9L25.2 82.4c-3.8-3.2-4.4-8.8-1.4-12.6Z"
    fill="#FFFFFF"
    stroke="#243E91"
    stroke-width="7"
    stroke-linejoin="round"
  />
  <path
    d="M14.7 78.1c3.2-3.7 8.8-4.1 12.5-.9l13.1 11.2c3.7 3.1 4.1 8.7 1 12.4-3.2 3.7-8.8 4.2-12.5 1L15.7 90.6c-3.7-3.2-4.2-8.8-1-12.5Z"
    fill="#FFFFFF"
    stroke="#243E91"
    stroke-width="7"
    stroke-linejoin="round"
  />
  <path
    d="M7.5 88.7c2.9-3.4 8.1-3.8 11.5-.8l11 9.5c3.4 3 3.8 8.2.8 11.6-3 3.4-8.2 3.8-11.6.8l-11-9.5c-3.4-2.9-3.7-8.1-.7-11.6Z"
    fill="#FFFFFF"
    stroke="#243E91"
    stroke-width="7"
    stroke-linejoin="round"
  />
  <path d="M89.7 92.8c3.7 3.2 9.3 2.8 12.5-.9" stroke="#243E91" stroke-width="7" stroke-linecap="round" />
  <path d="M76.8 94 88.6 104c3.7 3.1 9.2 2.7 12.4-.9" stroke="#243E91" stroke-width="7" stroke-linecap="round" />
</svg>
